# xmcd CD database file
#
# Track frame offsets:
#	150
#	26966
#	51743
#	66772
#	91565
#	121534
#	145168
#
# Disc length: 2451 seconds
#
# Revision: 3
# Processed by: cddbd v1.4PL0 Copyright (c) Steve Scherf et al.
# Submitted via: CDex 1.51
#
DISCID=5b099107
DTITLE=Middle C Music Jazz Faculty - Jazz All Stars
DYEAR=2003
DGENRE=Jazz
TTITLE0=Blues on Middle C
TTITLE1=Jessie's Blues
TTITLE2=Pete's Rhythm
TTITLE3=Footsteps to the Stars
TTITLE4=Little Wing
TTITLE5=How High The Moon
TTITLE6=Prelude and Samba
EXTD=YEAR: 2003
EXTT0=
EXTT1=
EXTT2=
EXTT3=
EXTT4=
EXTT5=
EXTT6=
PLAYORDER=
